<?xml version="1.0" encoding="utf-8"?>
<!-- Generator: Adobe Illustrator 16.0.0, SVG Export Plug-In . SVG Version: 6.00 Build 0)  -->
<!DOCTYPE svg PUBLIC "-//W3C//DTD SVG 1.1//EN" "http://www.w3.org/Graphics/SVG/1.1/DTD/svg11.dtd">
<svg version="1.1" id="Layer_1" xmlns="http://www.w3.org/2000/svg" xmlns:xlink="http://www.w3.org/1999/xlink" x="0px" y="0px"
	 width="1000px" height="700px" viewBox="0 0 1000 700" enable-background="new 0 0 1000 700" xml:space="preserve">
<g>
	<defs>
		<circle id="SVGID_1_" cx="501" cy="351" r="350"/>
	</defs>
	<clipPath id="SVGID_2_">
		<use xlink:href="#SVGID_1_"  overflow="visible"/>
	</clipPath>
	<g transform="translate(-7 -7)" clip-path="url(#SVGID_2_)">
		<path fill="#DB4437" d="M213.563,8v429.546h156.665L508,198.909h350V8H213.563z"/>
		
			<linearGradient id="SVGID_3_" gradientUnits="userSpaceOnUse" x1="16.8384" y1="645.7646" x2="69.3384" y2="676.4316" gradientTransform="matrix(3.9773 0 0 -3.9773 175.8912 2842.9399)">
			<stop  offset="0" style="stop-color:#A52714;stop-opacity:0.6"/>
			<stop  offset="0.66" style="stop-color:#A52714;stop-opacity:0"/>
		</linearGradient>
		<path fill="url(#SVGID_3_)" d="M213.563,8v429.546h156.665L508,198.909h350V8H213.563z"/>
	</g>
</g>
<g>
	<defs>
		<circle id="SVGID_4_" cx="501" cy="351" r="350"/>
	</defs>
	<clipPath id="SVGID_5_">
		<use xlink:href="#SVGID_4_"  overflow="visible"/>
	</clipPath>
	<path clip-path="url(#SVGID_5_)" fill="#3E2723" fill-opacity="0.15" d="M367.006,429.153L208.591,157.466l-2.307,3.978
		l157.261,269.659L367.006,429.153z"/>
</g>
<g>
	<defs>
		<circle id="SVGID_6_" cx="501" cy="351" r="350"/>
	</defs>
	<clipPath id="SVGID_7_">
		<use xlink:href="#SVGID_6_"  overflow="visible"/>
	</clipPath>
	<g transform="translate(-7 -7)" clip-path="url(#SVGID_7_)">
		<path fill="#0F9D58" d="M158,708h333.176l154.637-154.637V437.546H370.227L158,73.545V708z"/>
		
			<linearGradient id="SVGID_8_" gradientUnits="userSpaceOnUse" x1="98.3716" y1="556.2852" x2="40.0396" y2="590.4551" gradientTransform="matrix(3.9773 0 0 -3.9773 175.8912 2842.9399)">
			<stop  offset="0" style="stop-color:#055524;stop-opacity:0.4"/>
			<stop  offset="0.33" style="stop-color:#055524;stop-opacity:0"/>
		</linearGradient>
		<path fill="url(#SVGID_8_)" d="M158,708h333.176l154.637-154.637V437.546H370.227L158,73.545V708z"/>
	</g>
</g>
<g>
	<defs>
		<circle id="SVGID_9_" cx="501" cy="351" r="350"/>
	</defs>
	<clipPath id="SVGID_10_">
		<use xlink:href="#SVGID_9_"  overflow="visible"/>
	</clipPath>
	<path clip-path="url(#SVGID_10_)" fill="#263238" fill-opacity="0.15" d="M635.591,435.835l-3.301-1.909L479.603,701h4.573
		L635.71,435.954L635.591,435.835z"/>
</g>
<g>
	<defs>
		<circle id="SVGID_11_" cx="501" cy="351" r="350"/>
	</defs>
	<clipPath id="SVGID_12_">
		<use xlink:href="#SVGID_11_"  overflow="visible"/>
	</clipPath>
	<g clip-path="url(#SVGID_12_)">
		<g transform="translate(-7 -7)">
			<defs>
				<polygon id="SVGID_13_" points="158,708 491.176,708 645.813,553.363 645.813,437.546 370.227,437.546 158,73.545 				"/>
			</defs>
			<clipPath id="SVGID_14_">
				<use xlink:href="#SVGID_13_"  overflow="visible"/>
			</clipPath>
			<g clip-path="url(#SVGID_14_)">
				<path fill="#FFCD40" d="M508,198.909l137.813,238.637L491.176,708H858V198.909H508z"/>
				
					<linearGradient id="SVGID_15_" gradientUnits="userSpaceOnUse" x1="109.355" y1="670.9805" x2="124.045" y2="606.6545" gradientTransform="matrix(3.9773 0 0 -3.9773 175.8912 2842.9399)">
					<stop  offset="0" style="stop-color:#EA6100;stop-opacity:0.3"/>
					<stop  offset="0.66" style="stop-color:#EA6100;stop-opacity:0"/>
				</linearGradient>
				<path fill="url(#SVGID_15_)" d="M508,198.909l137.813,238.637L491.176,708H858V198.909H508z"/>
			</g>
		</g>
		<g>
			<defs>
				<circle id="SVGID_16_" cx="508" cy="358" r="350"/>
			</defs>
			<clipPath id="SVGID_17_">
				<use xlink:href="#SVGID_16_"  overflow="visible"/>
			</clipPath>
			<g transform="translate(-7 -7)" clip-path="url(#SVGID_17_)">
				<path fill="#FFCD40" d="M515,205.909l137.813,238.637L498.176,715H865V205.909H515z"/>
				
					<linearGradient id="SVGID_18_" gradientUnits="userSpaceOnUse" x1="116.355" y1="677.9805" x2="131.045" y2="613.6545" gradientTransform="matrix(3.9773 0 0 -3.9773 155.0502 2877.781)">
					<stop  offset="0" style="stop-color:#EA6100;stop-opacity:0.3"/>
					<stop  offset="0.66" style="stop-color:#EA6100;stop-opacity:0"/>
				</linearGradient>
				<path fill="url(#SVGID_18_)" d="M515,205.909l137.813,238.637L498.176,715H865V205.909H515z"/>
			</g>
		</g>
		<g>
			<defs>
				<circle id="SVGID_19_" cx="508" cy="358" r="350"/>
			</defs>
			<clipPath id="SVGID_20_">
				<use xlink:href="#SVGID_19_"  overflow="visible"/>
			</clipPath>
			<g clip-path="url(#SVGID_20_)">
				<g transform="translate(-7 -7)">
					<defs>
						<polygon id="SVGID_21_" points="515,205.909 652.813,444.546 498.176,715 865,715 865,205.909 						"/>
					</defs>
					<clipPath id="SVGID_22_">
						<use xlink:href="#SVGID_21_"  overflow="visible"/>
					</clipPath>
					<g clip-path="url(#SVGID_22_)">
						<path fill="#DB4437" d="M220.563,15v429.546h156.665L515,205.909h350V15H220.563z"/>
						
							<linearGradient id="SVGID_23_" gradientUnits="userSpaceOnUse" x1="23.8384" y1="652.7646" x2="76.3384" y2="683.4316" gradientTransform="matrix(3.9773 0 0 -3.9773 155.0502 2877.781)">
							<stop  offset="0" style="stop-color:#A52714;stop-opacity:0.6"/>
							<stop  offset="0.66" style="stop-color:#A52714;stop-opacity:0"/>
						</linearGradient>
						<path fill="url(#SVGID_23_)" d="M220.563,15v429.546h156.665L515,205.909h350V15H220.563z"/>
					</g>
				</g>
				<g>
					<defs>
						<circle id="SVGID_24_" cx="515" cy="365" r="350"/>
					</defs>
					<clipPath id="SVGID_25_">
						<use xlink:href="#SVGID_24_"  overflow="visible"/>
					</clipPath>
					
						<radialGradient id="SVGID_26_" cx="662.6816" cy="671.8389" r="84.077" gradientTransform="matrix(3.9773 0 0 -3.9773 -2135.8579 2877.781)" gradientUnits="userSpaceOnUse">
						<stop  offset="0" style="stop-color:#3E2723;stop-opacity:0.2"/>
						<stop  offset="1" style="stop-color:#3E2723;stop-opacity:0"/>
					</radialGradient>
					<path clip-path="url(#SVGID_25_)" fill="url(#SVGID_26_)" d="M515,205.909v83.324l311.818-83.324H515z"/>
				</g>
				<g>
					<defs>
						<circle id="SVGID_27_" cx="515" cy="365" r="350"/>
					</defs>
					<clipPath id="SVGID_28_">
						<use xlink:href="#SVGID_27_"  overflow="visible"/>
					</clipPath>
					<g clip-path="url(#SVGID_28_)">
						<g transform="translate(-7 -7)">
							<defs>
								<polygon id="SVGID_29_" points="227.563,22 227.563,182.443 384.227,451.546 522,212.909 872,212.909 872,22 								"/>
							</defs>
							<clipPath id="SVGID_30_">
								<use xlink:href="#SVGID_29_"  overflow="visible"/>
							</clipPath>
							<g clip-path="url(#SVGID_30_)">
								<path fill="#0F9D58" d="M172,722h333.176l154.637-154.637V451.546H384.227L172,87.545V722z"/>
								
									<linearGradient id="SVGID_31_" gradientUnits="userSpaceOnUse" x1="112.3716" y1="570.2852" x2="54.0396" y2="604.4551" gradientTransform="matrix(3.9773 0 0 -3.9773 134.2093 2912.6218)">
									<stop  offset="0" style="stop-color:#055524;stop-opacity:0.4"/>
									<stop  offset="0.33" style="stop-color:#055524;stop-opacity:0"/>
								</linearGradient>
								<path fill="url(#SVGID_31_)" d="M172,722h333.176l154.637-154.637V451.546H384.227L172,87.545V722z"/>
							</g>
						</g>
						<g>
							<defs>
								<circle id="SVGID_32_" cx="522" cy="372" r="350"/>
							</defs>
							<clipPath id="SVGID_33_">
								<use xlink:href="#SVGID_32_"  overflow="visible"/>
							</clipPath>
							
								<radialGradient id="SVGID_34_" cx="599.3809" cy="686.2676" r="78.044" gradientTransform="matrix(3.9773 0 0 -3.9773 -2156.699 2912.6218)" gradientUnits="userSpaceOnUse">
								<stop  offset="0" style="stop-color:#3E2723;stop-opacity:0.2"/>
								<stop  offset="1" style="stop-color:#3E2723;stop-opacity:0"/>
							</radialGradient>
							<path clip-path="url(#SVGID_33_)" fill="url(#SVGID_34_)" d="M227.563,182.881L455.262,410.54l-71.035,41.006
								L227.563,182.881z"/>
						</g>
						<g>
							<defs>
								<circle id="SVGID_35_" cx="522" cy="372" r="350"/>
							</defs>
							<clipPath id="SVGID_36_">
								<use xlink:href="#SVGID_35_"  overflow="visible"/>
							</clipPath>
							
								<radialGradient id="SVGID_37_" cx="673.3418" cy="638.6484" r="87.8677" gradientTransform="matrix(3.9773 0 0 -3.9773 -2156.699 2912.6218)" gradientUnits="userSpaceOnUse">
								<stop  offset="0" style="stop-color:#263238;stop-opacity:0.2"/>
								<stop  offset="1" style="stop-color:#263238;stop-opacity:0"/>
							</radialGradient>
							<path clip-path="url(#SVGID_36_)" fill="url(#SVGID_37_)" d="M505.415,721.563l83.363-311.022l71.034,41.006L505.415,721.563
								z"/>
						</g>
						<g>
							<defs>
								<circle id="SVGID_38_" cx="522" cy="372" r="350"/>
							</defs>
							<clipPath id="SVGID_39_">
								<use xlink:href="#SVGID_38_"  overflow="visible"/>
							</clipPath>
							<g transform="translate(-7 -7)" clip-path="url(#SVGID_39_)">
								<circle fill="#F1F1F1" cx="529" cy="379" r="159.091"/>
								<circle fill="#4285F4" cx="529" cy="379" r="127.272"/>
							</g>
						</g>
						<g>
							<defs>
								<circle id="SVGID_40_" cx="522" cy="372" r="350"/>
							</defs>
							<clipPath id="SVGID_41_">
								<use xlink:href="#SVGID_40_"  overflow="visible"/>
							</clipPath>
							<g transform="translate(-7 -7)" clip-path="url(#SVGID_41_)">
								<path fill="#3E2723" fill-opacity="0.2" d="M529,215.932c-87.858,0-159.091,71.233-159.091,159.091V379
									c0-87.858,71.233-159.091,159.091-159.091h350v-3.978H529z"/>
								<path fill="#FFFFFF" fill-opacity="0.1" d="M666.613,458.546c-27.522,47.488-78.789,79.545-137.613,79.545
									c-58.863,0-110.131-32.057-137.653-79.545h-0.159L179,94.545v3.978l212.228,364h0.159
									c27.523,47.489,78.79,79.546,137.654,79.546c58.823,0,110.091-32.018,137.613-79.546h0.199v-3.977H666.613L666.613,458.546z
									"/>
								<path opacity="0.1" fill="#3E2723" enable-background="new    " d="M532.978,219.909c-0.677,0-1.313,0.08-1.989,0.119
									c86.943,1.074,157.103,71.79,157.103,158.972s-70.159,157.897-157.103,158.972c0.677,0,1.313,0.119,1.989,0.119
									c87.857,0,159.091-71.232,159.091-159.091C692.068,291.142,620.835,219.909,532.978,219.909z"/>
								<path fill="#FFFFFF" fill-opacity="0.2" d="M668.204,463.835c13.523-23.386,21.358-50.432,21.358-79.386
									c0-16.784-2.625-32.933-7.438-48.086c3.778,13.603,5.966,27.881,5.966,42.677c0,28.954-7.835,56-21.357,79.386l0.079,0.159
									L512.176,729.04h4.614l151.494-265.046L668.204,463.835L668.204,463.835z"/>
							</g>
						</g>
						<g>
							<defs>
								<circle id="SVGID_42_" cx="522" cy="372" r="350"/>
							</defs>
							<clipPath id="SVGID_43_">
								<use xlink:href="#SVGID_42_"  overflow="visible"/>
							</clipPath>
							<g transform="translate(-7 -7)" clip-path="url(#SVGID_43_)">
								<path fill="#FFFFFF" fill-opacity="0.2" d="M529,32.978c192.619,0,348.887,155.63,349.96,348.011
									c0-0.676,0.04-1.313,0.04-1.988c0-193.295-156.705-350-350-350c-193.295,0-350,156.705-350,350
									c0,0.676,0.04,1.313,0.04,1.988C180.114,188.608,336.381,32.978,529,32.978L529,32.978z"/>
								<path fill="#3E2723" fill-opacity="0.15" d="M529,725.022c192.619,0,348.887-155.631,349.96-348.011
									c0,0.676,0.04,1.313,0.04,1.988c0,193.296-156.705,350-350,350c-193.295,0-350-156.704-350-350
									c0-0.676,0.04-1.313,0.04-1.988C180.114,569.392,336.381,725.022,529,725.022L529,725.022z"/>
							</g>
						</g>
						
							<radialGradient id="SVGID_44_" cx="35.7876" cy="702.7725" r="176.75" gradientTransform="matrix(3.9773 0 0 -3.9773 134.2093 2912.6218)" gradientUnits="userSpaceOnUse">
							<stop  offset="0" style="stop-color:#FFFFFF;stop-opacity:0.1"/>
							<stop  offset="1" style="stop-color:#FFFFFF;stop-opacity:0"/>
						</radialGradient>
						<circle fill="url(#SVGID_44_)" cx="522" cy="372" r="350"/>
					</g>
				</g>
			</g>
		</g>
	</g>
</g>
<rect x="425.5" y="71.5" fill="none" width="149" height="61"/>
<text transform="matrix(1 0 0 1 425.5 115.5)" font-family="'AdobeMyungjoStd-Medium-KSCpc-EUC-H'" font-size="50">Hall 1</text>
</svg>
